<?xml version="1.0" encoding="UTF-8"?>
<svg width="379px" height="113px" viewBox="0 0 379 113" version="1.1" xmlns="http://www.w3.org/2000/svg" xmlns:xlink="http://www.w3.org/1999/xlink">
    <title>Wego Logo</title>
    <g id="Brand-Book" stroke="none" stroke-width="1" fill="none" fill-rule="evenodd">
        <g id="Wego-Logo" fill-rule="nonzero">
            <g id="Group">
                <path d="M162.417974,0.683585034 C184.30156,0.683585034 199.959176,17.6254221 200.125714,40.7886383 L200.12123,42.1419822 C200.110578,43.4475656 200.078054,44.2839804 199.994004,45.163918 L199.951444,45.5750002 L199.556523,49.1292907 L141.64026,49.12894 L141.742837,49.4759834 C144.482537,58.5512475 151.84727,64.4940146 161.899947,64.7993603 L162.326302,64.8089003 L162.717638,64.8117151 C170.613508,64.8117151 176.508475,61.7303549 179.053751,56.7231909 L179.189254,56.4481699 L180.274826,54.1736374 L199.470703,54.1736374 L197.663516,59.4613333 C193.009041,73.0799813 179.242216,81.642852 162.417974,81.642852 C139.378563,81.642852 122.462753,64.1282523 122.462753,41.0883025 C122.462753,18.173852 139.403326,0.683585034 162.417974,0.683585034 Z M0.218974864,2.48156999 L19.8727054,2.48156999 L36.4081964,47.6346147 L51.6718564,2.48156999 L66.5430624,2.48156999 L81.8232986,47.5586998 L98.5047304,2.48156999 L118.148368,2.48156999 L89.067972,79.695035 L74.146777,79.695035 L59.1836714,35.4342879 L44.2205658,79.695035 L29.2993708,79.695035 L0.218974864,2.48156999 Z M162.11831,17.514722 C152.093517,17.514722 144.562873,23.5671249 141.759991,32.8055002 L141.644256,33.1967955 L181.130003,33.1967955 L181.062448,32.9099084 C178.741023,23.441028 171.962035,17.6622882 162.48417,17.5175082 L162.11831,17.514722 Z" id="we" fill="#353535"></path>
                <path d="M302.011528,0.99888053 L293.442275,18.9787301 L283.266322,18.9784755 C286.850443,24.7676552 288.919331,31.593703 288.919331,38.9029654 C288.919331,39.1417787 288.917122,39.3800762 288.912724,39.6178386 L288.919331,39.6178131 L288.919331,74.5193686 C288.919331,95.5460786 271.898129,112.598202 250.893245,112.598202 C238.452182,112.598202 227.014401,106.561607 219.934204,96.6338145 L219.637643,96.2120206 L234.414949,85.9696458 C238.146675,91.3536376 244.239014,94.6183522 250.893245,94.6183522 C261.845532,94.6183522 270.752199,85.8097989 270.936566,74.8656746 L270.939481,74.5193686 L270.939736,71.1540413 C265.150556,74.7381627 258.324508,76.8070502 251.015246,76.8070502 C230.081398,76.8070502 213.111161,59.8368134 213.111161,38.9029654 C213.111161,17.9691174 230.081398,0.99888053 251.015246,0.99888053 L251.015246,0.99888053 L302.011528,0.99888053 Z M340.914494,0.99888053 C361.848342,0.99888053 378.818578,17.9691174 378.818578,38.9029654 C378.818578,59.8368134 361.848342,76.8070502 340.914494,76.8070502 C319.980646,76.8070502 303.010409,59.8368134 303.010409,38.9029654 C303.010409,17.9691174 319.980646,0.99888053 340.914494,0.99888053 Z M251.015246,18.9787301 C240.011395,18.9787301 231.091011,27.8991141 231.091011,38.9029654 C231.091011,49.9068167 240.011395,58.8272007 251.015246,58.8272007 C262.019097,58.8272007 270.939481,49.9068167 270.939481,38.9029654 C270.939481,27.8991141 262.019097,18.9787301 251.015246,18.9787301 Z M340.914494,18.9787301 C329.910642,18.9787301 320.990258,27.8991141 320.990258,38.9029654 C320.990258,49.9068167 329.910642,58.8272007 340.914494,58.8272007 C351.918345,58.8272007 360.838729,49.9068167 360.838729,38.9029654 C360.838729,27.8991141 351.918345,18.9787301 340.914494,18.9787301 Z" id="Combined-Shape" fill="#0CD9C4"></path>
            </g>
        </g>
    </g>
</svg>